<svg width="24" height="24" viewBox="0 0 24 24" fill="none" xmlns="http://www.w3.org/2000/svg">
<path d="M15.9854 4C15.9239 3.44999 15.6619 2.94194 15.2494 2.57297C14.8369 2.20401 14.3028 2.00002 13.7494 2H10.2494C9.69597 2.00002 9.16195 2.20401 8.74945 2.57297C8.33694 2.94194 8.0749 3.44999 8.0134 4H6.2494C5.65267 4 5.08037 4.23705 4.65841 4.65901C4.23646 5.08097 3.9994 5.65326 3.9994 6.25V10.1C4.47195 9.85798 4.97727 9.68617 5.4994 9.59V6.25C5.4994 6.05109 5.57842 5.86032 5.71907 5.71967C5.85973 5.57902 6.05049 5.5 6.2494 5.5H8.3784C8.7824 6.103 9.4694 6.5 10.2494 6.5H13.7494C14.5294 6.5 15.2164 6.103 15.6204 5.5H17.7494C17.9483 5.5 18.1391 5.57902 18.2797 5.71967C18.4204 5.86032 18.4994 6.05109 18.4994 6.25V19.75C18.4994 19.9489 18.4204 20.1397 18.2797 20.2803C18.1391 20.421 17.9483 20.5 17.7494 20.5H13.8314C13.9422 20.7345 13.9997 20.9906 13.9997 21.25C13.9997 21.5094 13.9422 21.7655 13.8314 22H17.7494C18.0449 22 18.3375 21.9418 18.6104 21.8287C18.8834 21.7157 19.1315 21.5499 19.3404 21.341C19.5493 21.1321 19.7151 20.884 19.8281 20.611C19.9412 20.3381 19.9994 20.0455 19.9994 19.75V6.25C19.9994 5.95453 19.9412 5.66194 19.8281 5.38896C19.7151 5.11598 19.5493 4.86794 19.3404 4.65901C19.1315 4.45008 18.8834 4.28434 18.6104 4.17127C18.3375 4.0582 18.0449 4 17.7494 4H15.9854ZM15.9944 4.096L15.9994 4.25C15.9994 4.198 15.9974 4.147 15.9944 4.096ZM10.2494 3.5H13.7494C13.9483 3.5 14.1391 3.57902 14.2797 3.71967C14.4204 3.86032 14.4994 4.05109 14.4994 4.25C14.4994 4.44891 14.4204 4.63968 14.2797 4.78033C14.1391 4.92098 13.9483 5 13.7494 5H10.2494C10.0505 5 9.85973 4.92098 9.71907 4.78033C9.57842 4.63968 9.4994 4.44891 9.4994 4.25C9.4994 4.05109 9.57842 3.86032 9.71907 3.71967C9.85973 3.57902 10.0505 3.5 10.2494 3.5ZM9.9494 17.89C10.6735 17.0249 11.0463 15.9195 10.9939 14.7925C10.9415 13.6656 10.4678 12.5995 9.66653 11.8054C8.86526 11.0112 7.79494 10.547 6.6676 10.5047C5.54026 10.4624 4.43815 10.845 3.5796 11.5769C2.72105 12.3087 2.1687 13.3363 2.03197 14.4561C1.89523 15.5759 2.1841 16.7063 2.84133 17.6232C3.49857 18.5401 4.47623 19.1767 5.58063 19.4069C6.68502 19.637 7.8356 19.444 8.8044 18.866L11.7194 21.78C11.7881 21.8537 11.8709 21.9128 11.9629 21.9538C12.0549 21.9948 12.1542 22.0168 12.2549 22.0186C12.3556 22.0204 12.4556 22.0018 12.549 21.9641C12.6424 21.9264 12.7272 21.8703 12.7984 21.799C12.8697 21.7278 12.9258 21.643 12.9635 21.5496C13.0012 21.4562 13.0198 21.3562 13.018 21.2555C13.0162 21.1548 12.9942 21.0555 12.9532 20.9635C12.9122 20.8715 12.8531 20.7887 12.7794 20.72L9.9494 17.89ZM6.4994 18C5.70375 18 4.94069 17.6839 4.37808 17.1213C3.81547 16.5587 3.4994 15.7956 3.4994 15C3.4994 14.2044 3.81547 13.4413 4.37808 12.8787C4.94069 12.3161 5.70375 12 6.4994 12C7.29505 12 8.05812 12.3161 8.62073 12.8787C9.18333 13.4413 9.4994 14.2044 9.4994 15C9.4994 15.7956 9.18333 16.5587 8.62073 17.1213C8.05812 17.6839 7.29505 18 6.4994 18Z" fill="#F5F5F5"/>
</svg>
