<svg width="24" height="24" viewBox="0 0 24 24" fill="none" xmlns="http://www.w3.org/2000/svg">
<path fill-rule="evenodd" clip-rule="evenodd" d="M5.83344 3.14252C6.89814 2.43121 8.0925 1.93658 9.34836 1.68686C10.6042 1.43714 11.8969 1.43723 13.1528 1.68711C14.4086 1.93699 15.6029 2.43178 16.6675 3.14322C17.7321 3.85466 18.6461 4.76883 19.3574 5.83352C20.0687 6.89821 20.5634 8.09258 20.8131 9.34843C21.0628 10.6043 21.0627 11.897 20.8129 13.1528C20.563 14.4087 20.0682 15.603 19.3567 16.6676C18.6453 17.7322 17.7311 18.6462 16.6664 19.3575C14.516 20.7939 11.8831 21.3171 9.34681 20.8122C6.81057 20.3072 4.57879 18.8155 3.14244 16.665C1.7061 14.5146 1.18284 11.8816 1.68778 9.34538C2.19272 6.80914 3.6845 4.57737 5.83494 3.14102L5.83344 3.14252ZM6.66594 18.1095C8.02279 19.0162 9.61805 19.5001 11.2499 19.5C13.4372 19.4976 15.5343 18.6277 17.0809 17.081C18.6276 15.5344 19.4976 13.4373 19.4999 11.25C19.4999 9.82476 19.1306 8.42383 18.4281 7.18374C17.7256 5.94365 16.7138 4.90672 15.4913 4.17399C14.2688 3.44126 12.8773 3.03774 11.4525 3.00275C10.0277 2.96775 8.61809 3.30248 7.3611 3.97431C6.10412 4.64614 5.04263 5.63216 4.28007 6.83626C3.51752 8.04036 3.07991 9.42148 3.0099 10.845C2.93989 12.2686 3.23987 13.686 3.8806 14.9591C4.52133 16.2322 5.48095 17.3176 6.66594 18.1095ZM15.4409 6.00002L16.4999 7.06052L13.2749 10.2855C13.5077 10.7688 13.5619 11.3188 13.428 11.8381C13.294 12.3575 12.9806 12.8127 12.5432 13.1231C12.1057 13.4335 11.5726 13.5791 11.0381 13.534C10.5036 13.4889 10.0024 13.2561 9.62309 12.8769C9.24382 12.4976 9.01103 11.9963 8.96596 11.4619C8.92089 10.9274 9.06644 10.3942 9.37684 9.9568C9.68724 9.51937 10.1424 9.20593 10.6618 9.07199C11.1812 8.93805 11.7312 8.99226 12.2144 9.22502L15.4394 6.00002H15.4409ZM10.8314 11.874C10.9969 11.9846 11.1996 12.0249 11.3948 11.9861C11.59 11.9473 11.7618 11.8325 11.8724 11.667C11.983 11.5015 12.0234 11.2989 11.9845 11.1036C11.9457 10.9084 11.8309 10.7366 11.6654 10.626C11.5835 10.5713 11.4916 10.5332 11.3949 10.5139C11.2982 10.4947 11.1987 10.4947 11.1021 10.5139C10.9068 10.5527 10.735 10.6675 10.6244 10.833C10.5138 10.9985 10.4735 11.2012 10.5123 11.3964C10.5512 11.5916 10.6659 11.7634 10.8314 11.874ZM17.2604 8.20052L16.1159 9.34502C16.3649 9.94952 16.4954 10.596 16.4984 11.25C16.4942 12.19 16.235 13.1112 15.7484 13.9155L16.8509 15.018C17.523 14.0223 17.9156 12.8645 17.9879 11.6654C18.0601 10.4663 17.8095 9.26977 17.2619 8.20052H17.2604ZM13.0994 6.36302C12.5111 6.12724 11.8837 6.00411 11.2499 6.00002C9.85756 6.00002 8.5222 6.55314 7.53763 7.53771C6.55307 8.52228 5.99994 9.85763 5.99994 11.25C6.00394 12.19 6.26316 13.1113 6.74994 13.9155L5.64894 15.018C4.82042 13.7824 4.42333 12.3076 4.51939 10.823C4.61546 9.33838 5.19931 7.9271 6.18018 6.80853C7.16104 5.68996 8.48397 4.92677 9.94332 4.6376C11.4027 4.34844 12.9167 4.54949 14.2499 5.20952L13.0994 6.36302Z" fill="#F5F5F5"/>
</svg>
