<svg width="24" height="24" viewBox="0 0 24 24" fill="none" xmlns="http://www.w3.org/2000/svg">
<path d="M2.00024 5.25C2.00024 4.38805 2.34265 3.5614 2.95215 2.9519C3.56164 2.34241 4.38829 2 5.25024 2H13.2502C14.1122 2 14.9388 2.34241 15.5483 2.9519C16.1578 3.5614 16.5002 4.38805 16.5002 5.25V7.5H18.7502C19.177 7.5 19.5997 7.58406 19.994 7.74739C20.3883 7.91072 20.7466 8.15011 21.0483 8.4519C21.3501 8.75369 21.5895 9.11197 21.7529 9.50628C21.9162 9.90059 22.0002 10.3232 22.0002 10.75V18.75C22.0002 19.1768 21.9162 19.5994 21.7529 19.9937C21.5895 20.388 21.3501 20.7463 21.0483 21.0481C20.7466 21.3499 20.3883 21.5893 19.994 21.7526C19.5997 21.9159 19.177 22 18.7502 22H10.7502C10.3234 22 9.90083 21.9159 9.50652 21.7526C9.11222 21.5893 8.75394 21.3499 8.45215 21.0481C8.15036 20.7463 7.91096 20.388 7.74764 19.9937C7.58431 19.5994 7.50024 19.1768 7.50024 18.75V16.5H5.25024C4.38829 16.5 3.56164 16.1576 2.95215 15.5481C2.34265 14.9386 2.00024 14.112 2.00024 13.25V5.25ZM15.0002 5.25C15.0002 4.78587 14.8159 4.34075 14.4877 4.01256C14.1595 3.68437 13.7144 3.5 13.2502 3.5H5.25024C4.78612 3.5 4.341 3.68437 4.01281 4.01256C3.68462 4.34075 3.50024 4.78587 3.50024 5.25V13.25C3.50024 14.216 4.28424 15 5.25024 15H7.50024V10.75C7.50009 10.4274 7.54795 10.1065 7.64224 9.798C7.84704 9.1333 8.25924 8.55162 8.8185 8.13811C9.37776 7.7246 10.0547 7.50099 10.7502 7.5H15.0002V5.25ZM9.00024 14.56V15H10.4402L15.0002 10.44V9H14.5602L9.00024 14.56ZM12.4402 9H10.7502C10.6834 8.99989 10.6166 9.00356 10.5502 9.011L9.01024 10.55C9.00314 10.6164 8.9998 10.6832 9.00024 10.75V12.44L12.4402 9ZM16.5002 9V13.25C16.5002 14.112 16.1578 14.9386 15.5483 15.5481C14.9388 16.1576 14.1122 16.5 13.2502 16.5H9.00024V18.75C9.00024 19.716 9.78424 20.5 10.7502 20.5H18.7502C19.2144 20.5 19.6595 20.3156 19.9877 19.9874C20.3159 19.6593 20.5002 19.2141 20.5002 18.75V10.75C20.5002 10.2859 20.3159 9.84075 19.9877 9.51256C19.6595 9.18437 19.2144 9 18.7502 9H16.5002ZM12.5602 15H13.2502C13.7144 15 14.1595 14.8156 14.4877 14.4874C14.8159 14.1593 15.0002 13.7141 15.0002 13.25V12.56L12.5602 15Z" fill="#F5F5F5"/>
</svg>
