<svg width="40" height="40" viewBox="0 0 40 40" fill="none" xmlns="http://www.w3.org/2000/svg">
<path d="M34.644 17.7893C34.6507 17.6373 34.6667 17.488 34.6667 17.3333C34.6667 11.4426 29.8907 6.66663 24 6.66663C19.8533 6.66663 16.2667 9.03863 14.5027 12.4946C13.728 12.1813 12.8867 12 12 12C8.62667 12 5.868 14.5133 5.424 17.7653C2.27067 18.8386 0 21.8173 0 25.3333C0 29.752 3.58133 33.3333 8 33.3333H32C36.4187 33.3333 40 29.752 40 25.3333C40 21.8426 37.7613 18.8826 34.644 17.7893ZM24.9427 24.9426L20.9427 28.9426C20.6827 29.2026 20.3413 29.3333 20 29.3333C19.6587 29.3333 19.3173 29.2026 19.0573 28.9426L15.0573 24.9426C14.536 24.4213 14.536 23.5786 15.0573 23.0573C15.5787 22.536 16.4213 22.536 16.9427 23.0573L18.6667 24.7813V17.3333C18.6667 16.5973 19.2627 16 20 16C20.7373 16 21.3333 16.5973 21.3333 17.3333V24.7813L23.0573 23.0573C23.5787 22.536 24.4213 22.536 24.9427 23.0573C25.464 23.5786 25.464 24.4213 24.9427 24.9426Z" fill="#E1E5E4"/>
</svg>
