<svg width="14" height="16" viewBox="0 0 14 16" fill="none" xmlns="http://www.w3.org/2000/svg">
<path d="M2.33333 0C1.04456 0 0 0.976727 0 2.18182V13.8182C0 15.0233 1.04456 16 2.33333 16H11.6667C12.9554 16 14 15.0233 14 13.8182V6.78409C14 6.20518 13.7539 5.65057 13.3164 5.24148L8.39453 0.639204C7.95664 0.230113 7.36351 0 6.74479 0H2.33333ZM2.33333 1.45455H6.22222V5.09091C6.22222 6.296 7.26678 7.27273 8.55556 7.27273H12.4444V13.8182C12.4444 14.22 12.0964 14.5455 11.6667 14.5455H2.33333C1.90361 14.5455 1.55556 14.22 1.55556 13.8182V2.18182C1.55556 1.78 1.90361 1.45455 2.33333 1.45455ZM7.77778 2.11932L11.7335 5.81818H8.55556C8.12583 5.81818 7.77778 5.49273 7.77778 5.09091V2.11932Z" fill="#5C9B31"/>
</svg> 