<svg width="16" height="16" viewBox="0 0 16 16" fill="none" xmlns="http://www.w3.org/2000/svg">
<path d="M6.19092 12.125H15.0663V13.335H6.19092V12.125Z" fill="#4D4D4D"/>
<path d="M6.19092 2.66797H15.0663V3.87739H6.19092V2.66797Z" fill="#4D4D4D"/>
<path d="M6.19092 8.97266H15.0663V10.1828H6.19092V8.97266Z" fill="#4D4D4D"/>
<path d="M6.19092 5.82031H15.0663V7.03045H6.19092V5.82031Z" fill="#4D4D4D"/>
<path d="M3.09636 10.1908C3.6352 10.1908 4.05814 10.6139 4.05814 11.1527C4.05814 11.6918 3.6352 12.1149 3.09636 12.1149C2.55823 12.1149 2.13316 11.6918 2.13316 11.1527C2.13316 10.6139 2.55823 10.1908 3.09636 10.1908V10.1908ZM3.09636 8.98047C1.90472 8.98047 0.924805 9.96003 0.924805 11.1527C0.924805 12.3455 1.90472 13.3252 3.09636 13.3252C4.28872 13.3252 5.26756 12.3455 5.26756 11.1527C5.26756 9.96003 4.28872 8.98047 3.09636 8.98047Z" fill="#4D4D4D"/>
<path d="M3.09636 3.88485C3.6352 3.88485 4.05814 4.30796 4.05814 4.84698C4.05814 5.38583 3.6352 5.80894 3.09636 5.80894C2.55823 5.80894 2.13316 5.38583 2.13316 4.84698C2.13316 4.30796 2.55823 3.88485 3.09636 3.88485ZM3.09636 2.67578C1.90472 2.67578 0.924805 3.65534 0.924805 4.84698C0.924805 6.03951 1.90472 7.01925 3.09636 7.01925C4.28872 7.01925 5.26756 6.03969 5.26756 4.84698C5.26756 3.65516 4.28872 2.67578 3.09636 2.67578Z" fill="#4D4D4D"/>
</svg>
