<svg width="16" height="16" viewBox="0 0 16 16" fill="none" xmlns="http://www.w3.org/2000/svg">
<path d="M4.83074 8.60629H9.28354C10.3491 8.60629 11.1614 9.39794 11.1614 10.3713C11.1614 11.3443 10.3493 12.1379 9.28354 12.1379H4.83074V8.60629ZM4.83074 3.86461H8.57243C9.63803 3.86461 10.4503 4.65821 10.4503 5.63136C10.4503 6.60452 9.63821 7.39616 8.57243 7.39616H4.83074V3.86461ZM3.62061 2.65625V13.3459H9.28354C10.9687 13.3459 12.3703 12.0246 12.3703 10.3711C12.3703 9.23118 11.7036 8.24896 10.7363 7.74869C11.3047 7.21092 11.6603 6.46265 11.6592 5.63136C11.6592 3.97749 10.2574 2.65625 8.57243 2.65625H3.62061V2.65625Z" fill="#4D4D4D"/>
</svg>
