<svg width="16" height="16" viewBox="0 0 16 16" fill="none" xmlns="http://www.w3.org/2000/svg">
<path d="M7.7244 2.67665C7.13347 2.68856 6.55231 2.80874 6.03355 3.04412C5.34289 3.35896 4.74289 3.90989 4.53258 4.68767C4.34858 5.3682 4.38022 5.99416 4.63018 6.50225C4.81631 6.88216 5.10413 7.17105 5.43195 7.39594H3.71533V8.60589H8.95515C9.59587 8.79878 10.1256 9.02936 10.3959 9.29123C10.6865 9.57176 10.8097 9.83398 10.617 10.546C10.0257 12.7284 5.60813 12.9053 5.29133 9.76145L4.0876 9.88305C4.52031 14.171 10.8254 14.4045 11.7847 10.8619C12.0273 9.96554 11.8503 9.15878 11.4051 8.60607H12.2762V7.39612H9.1372C8.0956 7.10172 7.00049 6.885 6.34467 6.53692C6.01684 6.36198 5.81791 6.17763 5.71515 5.9682C5.6124 5.76003 5.56867 5.48483 5.69951 5.00358C5.79747 4.64252 6.078 4.35363 6.5356 4.14527C6.99284 3.9378 7.60458 3.84429 8.19391 3.90438C8.78289 3.96358 9.33844 4.17407 9.71782 4.49692C10.0967 4.82029 10.3283 5.22829 10.3283 5.86474H11.5363C11.5363 4.90154 11.1169 4.09976 10.5024 3.57585C9.88742 3.05265 9.1052 2.78029 8.31622 2.70083C8.11889 2.68127 7.92173 2.67292 7.7244 2.67665V2.67665Z" fill="#4D4D4D"/>
</svg>
