<svg width="16" height="16" viewBox="0 0 16 16" fill="none" xmlns="http://www.w3.org/2000/svg">
<path d="M2.95991 8.56624C2.69147 8.54864 2.41823 8.59326 2.16205 8.69868C1.6488 8.9097 1.21094 9.46633 1.21094 10.1433V10.3847H2.41929V10.1433C2.41929 9.90882 2.48223 9.87557 2.62374 9.81744C2.76543 9.75824 2.99796 9.7737 3.12578 9.84873C3.33698 9.97299 3.35707 10.2377 3.12934 10.4841C2.59316 11.0619 2.18036 11.421 1.8648 11.7248C1.7064 11.8766 1.56756 12.0137 1.44703 12.187C1.32578 12.3611 1.22196 12.5981 1.22196 12.8537V13.4592H4.3976V12.2489H3.05698C3.32845 11.9963 3.59511 11.7593 4.01627 11.3054C4.69129 10.5767 4.63298 9.33228 3.73751 8.80642C3.49538 8.66348 3.22871 8.58384 2.95991 8.56624V8.56624Z" fill="#4D4D4D"/>
<path d="M6.00342 12.25H15.0664V13.4601H6.00342V12.25Z" fill="#4D4D4D"/>
<path d="M6.00342 2.54297H15.0664V3.75239H6.00342V2.54297Z" fill="#4D4D4D"/>
<path d="M6.00342 9.01562H15.0664V10.2258H6.00342V9.01562Z" fill="#4D4D4D"/>
<path d="M6.00342 5.77734H15.0664V6.98676H6.00342V5.77734Z" fill="#4D4D4D"/>
<path d="M2.75194 2.54297C2.75194 2.67559 2.63354 2.8875 2.39087 3.07186C2.14856 3.25621 1.79461 3.35897 1.72705 3.35897V4.56715C2.09754 4.56715 2.42358 4.36537 2.75212 4.17657V7.06546H3.96154V2.54297H2.75194Z" fill="#4D4D4D"/>
</svg>
