<svg width="24" height="24" viewBox="0 0 24 24" fill="none" xmlns="http://www.w3.org/2000/svg">
<path d="M13.1299 22.19L11.4999 18.36C13.0699 17.78 14.5399 17 15.8999 16.09L13.1299 22.19ZM5.63987 12.5L1.80988 10.87L7.90987 8.1C6.99987 9.46 6.21987 10.93 5.63987 12.5ZM19.2199 4C19.4999 4 19.7499 4 19.9599 4.05C20.1299 5.44 19.9399 8.3 16.6599 11.58C14.9599 13.29 12.9299 14.6 10.6499 15.47L8.49987 13.37C9.41987 11.06 10.7299 9.03 12.4199 7.34C15.1799 4.58 17.6399 4 19.2199 4ZM19.2199 2C17.2399 2 14.2399 2.69 10.9999 5.93C8.80988 8.12 7.49988 10.53 6.64988 12.64C6.36987 13.39 6.55988 14.21 7.10988 14.77L9.23987 16.89C9.61987 17.27 10.1299 17.5 10.6599 17.5C10.8899 17.5 11.1299 17.44 11.3599 17.35C13.8784 16.3897 16.1652 14.9072 18.0699 13C23.7299 7.34 21.6099 2.39 21.6099 2.39C21.6099 2.39 20.6999 2 19.2199 2ZM14.5399 9.46C13.7599 8.68 13.7599 7.41 14.5399 6.63C15.3199 5.85 16.5899 5.85 17.3699 6.63C18.1399 7.41 18.1499 8.68 17.3699 9.46C16.5899 10.24 15.3199 10.24 14.5399 9.46ZM8.87987 16.53L7.46987 15.12L8.87987 16.53ZM6.23987 22L9.87987 18.36C9.53987 18.27 9.20987 18.12 8.90987 17.91L4.82987 22H6.23987ZM1.99988 22H3.40988L8.17987 17.24L6.75988 15.83L1.99988 20.59V22ZM1.99988 19.17L6.08988 15.09C5.87988 14.79 5.72987 14.47 5.63987 14.12L1.99988 17.76V19.17Z" fill="white"/>
</svg>
